<svg width="10" height="97" viewBox="0 0 10 97" fill="none" xmlns="http://www.w3.org/2000/svg">
<g clip-path="url(#clip0_82_216)">
<path d="M5.00242 96.0242C5.05976 95.9557 5.08976 95.9105 5.12925 95.874C6.47471 94.6413 7.81979 93.4082 9.16943 92.1794C9.25222 92.1039 9.36652 92.0406 9.47817 92.0118C9.65285 91.9666 9.84387 92.0619 9.93653 92.2058C10.0303 92.3514 10.0197 92.5353 9.90577 92.6702C9.87425 92.7078 9.8359 92.7408 9.79906 92.7745C8.32942 94.1202 6.8594 95.4659 5.38938 96.8116C5.11482 97.0629 4.88128 97.0632 4.60823 96.8133C3.12834 95.4582 1.64845 94.1035 0.168939 92.7484C-0.114736 92.4887 -0.0285322 92.1064 0.332991 92.0174C0.508816 91.9739 0.659578 92.0215 0.786415 92.138C1.04085 92.3709 1.29566 92.6038 1.5501 92.8367C2.65821 93.8511 3.76671 94.8655 4.87444 95.8806C4.9109 95.9143 4.94052 95.9543 5.00242 96.0242Z" fill="black"/>
</g>
<defs>
<clipPath id="clip0_82_216">
<rect width="10" height="5" fill="white" transform="translate(0 92)"/>
</clipPath>
</defs>
</svg>
