<svg width="51" height="117" viewBox="0 0 51 117" fill="none" xmlns="http://www.w3.org/2000/svg">
<g clip-path="url(#clip0_82_214)">
<g clip-path="url(#clip1_82_214)">
<path d="M43.6853 74.5545C41.497 72.2719 38.9362 70.4458 36.0753 69.1334C33.1214 67.7742 29.9708 67.022 26.7117 66.8871C26.365 66.8715 26.0133 66.8663 25.6667 66.8663C22.6972 66.8663 19.7949 67.3851 17.0324 68.4019C14.363 69.3876 11.9005 70.8142 9.70183 72.6402C7.52387 74.4559 5.68217 76.6088 4.2233 79.0366C2.73338 81.5163 1.69872 84.2087 1.14001 87.0412C0.824435 88.639 0.664062 90.2835 0.664062 91.9332C0.664062 95.3155 1.32625 98.5993 2.62992 101.691C3.88703 104.674 5.69252 107.356 7.98946 109.659C10.2864 111.963 12.961 113.768 15.9357 115.034C19.019 116.341 22.2937 117.005 25.6667 117.005C29.0396 117.005 32.3143 116.341 35.3976 115.034C38.3723 113.773 41.0469 111.963 43.3438 109.659C45.6408 107.356 47.4411 104.674 48.7034 101.691C50.0071 98.5993 50.6692 95.3155 50.6692 91.9332C50.6641 85.4175 48.1861 79.2441 43.6853 74.5545ZM47.648 101.24C46.4478 104.088 44.7251 106.645 42.5368 108.845C40.3433 111.045 37.7929 112.767 34.9527 113.97C32.0143 115.215 28.8896 115.848 25.6667 115.848C24.8596 115.848 24.0578 115.807 23.2611 115.729L23.8974 114.313C24.0733 113.929 24.0888 113.597 24.0267 113.177L23.7422 111.252C23.5973 110.282 22.8317 109.525 21.8591 109.4L15.1286 108.513C14.2336 108.394 13.4473 107.859 13.0076 107.071L12.0039 105.265C11.6832 104.69 11.1762 104.244 10.5658 104L8.58439 103.211C7.88082 102.931 7.32211 102.386 7.02206 101.691L6.28745 99.9948C5.94601 99.2011 5.2683 98.6097 4.4354 98.3763C3.83013 98.2051 3.12138 98.0079 2.54197 97.8471C2.05568 95.9277 1.80736 93.9512 1.80736 91.9332C1.80736 90.3613 1.96256 88.7946 2.26261 87.2643C2.29365 87.0931 2.32987 86.9219 2.37125 86.7559L3.67493 85.9777L4.93721 85.2255L10.2605 82.0507C10.6744 81.8016 10.9589 81.3866 11.0365 80.9042L11.2745 79.3842C11.3832 78.6994 11.9108 78.1599 12.5885 78.0354L14.7924 77.6308C15.3304 77.5322 15.7805 77.1742 15.9977 76.671L17.0065 74.3003C17.0117 74.2899 17.0169 74.2795 17.0221 74.2691C17.2342 73.7971 17.6584 73.4547 18.1654 73.3457L19.8725 72.9878C20.1519 72.9307 20.4313 72.9463 20.6848 73.0241C21.3107 73.2161 21.7918 73.7815 21.8332 74.4922L21.8953 75.675C21.9263 76.2457 22.3816 76.7022 22.9507 76.7333C22.9714 76.7333 22.9921 76.7333 23.0127 76.7333C23.4111 76.7333 23.7784 76.5206 23.9802 76.173L25.7184 73.159L26.3237 72.1111C26.5616 71.6961 26.691 71.224 26.691 70.7415V68.0232C27.8446 68.0699 28.9776 68.1996 30.095 68.4123L30.7882 70.7675C31.021 71.556 30.99 72.3964 30.7055 73.1642L28.6982 78.5594C28.0671 80.2453 29.2362 82.0662 31.0262 82.1959L36.4633 82.5798C37.3945 82.6472 38.2688 83.0571 38.9155 83.7315L43.3024 88.307C44.0112 89.0488 44.9941 89.469 46.0236 89.469H49.3966C49.4794 90.2835 49.5208 91.1031 49.5208 91.928C49.5208 95.1599 48.8896 98.2933 47.648 101.24Z" fill="#519B34"/>
<path d="M26.3548 62.462C32.511 60.0861 35.9978 55.801 36.0237 55.7647C36.0134 55.8114 33.7578 60.8642 26.0651 63.8419C25.9772 64.1169 25.8737 64.397 25.7495 64.6823C25.8737 64.812 26.0082 64.9417 26.1479 65.0662C28.5121 67.2087 34.2544 67.2865 37.3377 62.5554C41.4246 56.2887 37.7671 49 37.7671 49C37.7671 49 36.2565 52.8129 30.7625 53.5703C29.4536 53.7519 28.2741 54.1877 27.2757 54.805C26.1427 55.5053 25.2943 56.5014 24.7666 57.6427C25.3771 58.2963 25.8426 59.0796 26.1117 59.9512C26.3496 60.6982 26.4479 61.5438 26.3548 62.462Z" fill="#519B34"/>
<path d="M23.9748 65.3775C24.2335 65.144 24.4611 64.9002 24.6629 64.6512C18.1704 62.3686 16.2924 58.1666 16.2821 58.1303C16.3028 58.1666 19.5206 62.1092 25.1285 63.8004C26.1062 61.4556 25.2578 58.7269 23.0953 57.3885C22.3193 56.906 21.3985 56.5688 20.3794 56.4236C16.101 55.8322 14.9215 52.8648 14.9215 52.8648C14.9215 52.8648 12.0762 58.5401 15.2578 63.4217C17.6582 67.105 22.1331 67.0427 23.9748 65.3775Z" fill="#519B34"/>
<path d="M39.2412 89.8322C39.1378 89.7907 39.0291 89.7699 38.9257 89.7699C38.7705 89.7699 38.6153 89.8114 38.4808 89.8944C38.2014 90.0656 37.891 90.1486 37.5858 90.1486C37.0012 90.1486 36.427 89.8529 36.101 89.3134L34.3163 86.3564C33.9334 85.7235 33.2505 85.3293 32.5159 85.3137L25.6665 85.1788C24.8698 85.1633 24.0835 85.3811 23.4109 85.8065L20.0948 87.892C18.0721 89.1681 17.0426 91.5597 17.5082 93.9097C18.0462 96.6124 20.4104 98.563 23.1574 98.563H25.9096C27.1254 98.563 28.1238 99.5175 28.1807 100.737L28.6308 110.469C28.6773 111.465 29.4947 112.248 30.488 112.248C30.8139 112.248 31.1295 112.165 31.4037 112.009C31.6779 111.854 31.9158 111.631 32.0814 111.351C33.4523 109.073 36.9753 102.879 38.0617 97.5981C38.8636 93.697 39.4171 91.8087 39.7327 90.9216C39.8827 90.4806 39.6654 90.0034 39.2412 89.8322Z" fill="#519B34"/>
</g>
</g>
<defs>
<clipPath id="clip0_82_214">
<rect width="50" height="117" fill="white" transform="translate(0.664062)"/>
</clipPath>
<clipPath id="clip1_82_214">
<rect width="50" height="68" fill="white" transform="translate(0.664062 49)"/>
</clipPath>
</defs>
</svg>
