<svg width="1366" height="901" viewBox="0 0 1366 901" fill="none" xmlns="http://www.w3.org/2000/svg">
<g clip-path="url(#clip0_82_157)">
<path d="M0.0709115 141.617L0.0709239 0.000182358C35.4089 9.00968 106.753 30.5522 223.075 79.8108C400.433 154.902 650.69 49.7888 791.438 60.2951C932.222 70.8014 1026.07 136.511 1143.39 86.5787C1238.95 45.9071 1301.62 7.19067 1363.86 5.51482L1363.86 6.07346C1301.64 7.77795 1238.97 46.4729 1143.45 87.1302C1026.14 137.062 932.279 71.3529 791.509 60.8465C650.754 50.3402 400.49 155.461 223.146 80.3695C106.831 31.1109 35.4727 9.56822 0.127642 0.551564L0.12763 141.617L0.0709115 141.617Z" fill="#F8F9CF"/>
<path d="M0.198845 141.617L0.12773 141.617L0.127742 0.551495C35.4728 9.56816 106.831 31.1108 223.146 80.3694C400.49 155.46 650.754 50.3402 791.509 60.8465C932.279 71.3528 1026.14 137.062 1143.45 87.1301C1238.97 46.4728 1301.64 7.77789 1363.86 6.07339L1363.86 124.701L1364 124.701L1364 461.97L1363.83 461.97L1363.83 901L-0.00016948 901L-0.000128532 432.606L0.198819 432.606L0.198845 141.617Z" fill="#F8F9CF"/>
</g>
<defs>
<clipPath id="clip0_82_157">
<rect width="1366" height="901" fill="white"/>
</clipPath>
</defs>
</svg>
