<svg width="45" height="60" viewBox="0 0 45 60" fill="none" xmlns="http://www.w3.org/2000/svg">
<g clip-path="url(#clip0_21_1120)">
<path d="M38.7191 22.548C36.7496 20.534 34.4449 18.9228 31.8701 17.7647C29.2116 16.5654 26.3761 15.9017 23.4428 15.7827C23.1309 15.769 22.8143 15.7644 22.5023 15.7644C19.8298 15.7644 17.2178 16.2221 14.7315 17.1193C12.329 17.989 10.1128 19.2478 8.13399 20.859C6.17382 22.4611 4.5163 24.3607 3.20331 26.5029C1.86239 28.6909 0.931195 31.0665 0.42835 33.5657C0.144335 34.9756 0 36.4266 0 37.8822C0 40.8666 0.595965 43.7641 1.76927 46.4922C2.90067 49.1242 4.52561 51.4907 6.59286 53.523C8.66011 55.5554 11.0673 57.1483 13.7444 58.2652C16.5194 59.4187 19.4666 60.0046 22.5023 60.0046C25.538 60.0046 28.4853 59.4187 31.2602 58.2652C33.9374 57.1529 36.3445 55.5554 38.4118 53.523C40.479 51.4907 42.0993 49.1242 43.2354 46.4922C44.4087 43.7641 45.0047 40.8666 45.0047 37.8822C45 32.133 42.7698 26.686 38.7191 22.548ZM42.2856 46.094C41.2054 48.6069 39.6549 50.8636 37.6855 52.8044C35.7113 54.7452 33.4159 56.2649 30.8598 57.3268C28.2152 58.4254 25.403 58.9838 22.5023 58.9838C21.776 58.9838 21.0543 58.9472 20.3373 58.8785L20.91 57.6289C21.0683 57.2902 21.0823 56.9972 21.0264 56.6265L20.7703 54.9283C20.6399 54.0723 19.9509 53.404 19.0755 53.2942L13.0181 52.5114C12.2126 52.4062 11.5049 51.9347 11.1092 51.2389L10.2059 49.646C9.91723 49.1379 9.46094 48.7443 8.91154 48.5291L7.1283 47.8334C6.49509 47.5862 5.99224 47.1056 5.72219 46.4922L5.06104 44.9954C4.75375 44.2951 4.14382 43.7733 3.39421 43.5673C2.84946 43.4162 2.21159 43.2423 1.69012 43.1004C1.25246 41.4068 1.02897 39.6628 1.02897 37.8822C1.02897 36.4953 1.16865 35.1129 1.4387 33.7626C1.46663 33.6115 1.49922 33.4605 1.53647 33.314L2.70978 32.6274L3.84584 31.9637L8.63683 29.1623C9.00931 28.9426 9.26539 28.5764 9.33523 28.1507L9.54941 26.8096C9.64718 26.2054 10.1221 25.7293 10.732 25.6195L12.7155 25.2624C13.1997 25.1755 13.6048 24.8596 13.8003 24.4156L14.7082 22.3238C14.7129 22.3146 14.7175 22.3054 14.7222 22.2963C14.9131 21.8798 15.2949 21.5776 15.7512 21.4815L17.2876 21.1657C17.5391 21.1153 17.7905 21.1291 18.0186 21.1977C18.582 21.3671 19.015 21.866 19.0522 22.4931L19.1081 23.5368C19.1361 24.0403 19.5458 24.4431 20.0579 24.4705C20.0766 24.4705 20.0952 24.4705 20.1138 24.4705C20.4723 24.4705 20.8029 24.2829 20.9845 23.9762L22.5489 21.3167L23.0936 20.3921C23.3078 20.0259 23.4242 19.6094 23.4242 19.1837V16.7852C24.4625 16.8264 25.4822 16.9408 26.4878 17.1285L27.1117 19.2066C27.3213 19.9023 27.2933 20.6439 27.0372 21.3213L25.2307 26.0818C24.6627 27.5694 25.715 29.1761 27.3259 29.2905L32.2193 29.6292C33.0574 29.6887 33.8443 30.0503 34.4263 30.6454L38.3745 34.6826C39.0124 35.3372 39.897 35.708 40.8236 35.708H43.8593C43.9338 36.4266 43.971 37.1498 43.971 37.8776C43.971 40.7293 43.403 43.494 42.2856 46.094Z" fill="#519B34"/>
<path d="M23.1218 11.8782C28.6624 9.78181 31.8005 6.00092 31.8238 5.96887C31.8145 6.01007 29.7845 10.4684 22.861 13.0958C22.7819 13.3384 22.6888 13.5856 22.577 13.8374C22.6888 13.9518 22.8098 14.0662 22.9355 14.1761C25.0633 16.0665 30.2314 16.1352 33.0064 11.9606C36.6846 6.43119 33.3928 0 33.3928 0C33.3928 0 32.0333 3.36436 27.0887 4.03265C25.9107 4.19286 24.8491 4.57736 23.9505 5.12206C22.9309 5.74001 22.1673 6.61886 21.6924 7.62588C22.2418 8.20262 22.6608 8.89381 22.9029 9.6628C23.1171 10.3219 23.2056 11.0681 23.1218 11.8782Z" fill="#519B34"/>
<path d="M20.9798 14.4507C21.2126 14.2448 21.4174 14.0296 21.599 13.8099C15.7558 11.7959 14.0656 8.08822 14.0563 8.05617C14.075 8.08822 16.971 11.567 22.0181 13.0592C22.898 10.9903 22.1344 8.58257 20.1883 7.40161C19.4899 6.97592 18.6611 6.67839 17.7439 6.55022C13.8934 6.0284 12.8318 3.41016 12.8318 3.41016C12.8318 3.41016 10.271 8.41778 13.1344 12.7251C15.2948 15.975 19.3222 15.9201 20.9798 14.4507Z" fill="#519B34"/>
<path d="M34.7195 36.0285C34.6263 35.9918 34.5286 35.9735 34.4354 35.9735C34.2958 35.9735 34.1561 36.0101 34.035 36.0834C33.7836 36.2344 33.5042 36.3077 33.2295 36.3077C32.7034 36.3077 32.1866 36.0468 31.8933 35.5707L30.287 32.9616C29.9424 32.4032 29.3278 32.0553 28.6667 32.0416L22.5022 31.9226C21.7852 31.9088 21.0775 32.1011 20.4722 32.4764L17.4877 34.3165C15.6672 35.4426 14.7407 37.5527 15.1597 39.6263C15.6439 42.0111 17.7717 43.7321 20.244 43.7321H22.721C23.8152 43.7321 24.7138 44.5744 24.765 45.6501L25.1701 54.2372C25.212 55.116 25.9476 55.8072 26.8415 55.8072C27.1349 55.8072 27.4189 55.734 27.6657 55.5967C27.9124 55.4593 28.1266 55.2625 28.2756 55.0153C29.5094 53.0059 32.6801 47.5405 33.6579 42.8808C34.3796 39.4386 34.8778 37.7724 35.1618 36.9897C35.2968 36.6006 35.1012 36.1795 34.7195 36.0285Z" fill="#519B34"/>
</g>
<defs>
<clipPath id="clip0_21_1120">
<rect width="45" height="60" fill="white"/>
</clipPath>
</defs>
</svg>
