<svg width="1374" height="901" viewBox="0 0 1374 901" fill="none" xmlns="http://www.w3.org/2000/svg">
<path d="M1373.59 759.248V900.84C1338 891.832 1266.15 870.293 1149.01 821.043C970.394 745.966 718.364 851.06 576.618 840.556C434.837 830.051 340.329 764.354 222.173 814.277C125.94 854.941 62.8269 893.651 0.143066 895.326V894.768C62.8054 893.064 125.911 854.376 222.109 813.725C340.257 763.803 434.78 829.5 576.547 840.004C718.299 850.509 970.337 745.407 1148.94 820.485C1266.08 869.735 1337.94 891.274 1373.54 900.289V759.248H1373.59Z" fill="#F8F9CF"/>
<path d="M1373.46 759.248H1373.54V900.289C1337.94 891.274 1266.08 869.735 1148.94 820.485C970.337 745.407 718.299 850.509 576.547 840.004C434.78 829.5 340.257 763.803 222.109 813.725C125.911 854.376 62.8055 893.064 0.143084 894.768V776.161H0V438.952H0.17171V0H1373.66V468.311H1373.46V759.248Z" fill="#F8F9CF"/>
</svg>
