<svg width="1374" height="901" viewBox="0 0 1374 901" fill="none" xmlns="http://www.w3.org/2000/svg">
<path d="M1373.93 759.248V900.84C1338.34 891.832 1266.49 870.293 1149.34 821.043C970.73 745.966 718.699 851.06 576.954 840.556C435.173 830.051 340.665 764.354 222.509 814.277C126.276 854.941 63.1628 893.651 0.479004 895.326V894.768C63.1414 893.064 126.247 854.376 222.445 813.725C340.593 763.803 435.116 829.5 576.883 840.004C718.635 850.509 970.673 745.407 1149.27 820.485C1266.41 869.735 1338.28 891.274 1373.87 900.289V759.248H1373.93Z" fill="#F8F9CF"/>
<path d="M1373.8 759.248H1373.87V900.289C1338.28 891.274 1266.41 869.735 1149.27 820.485C970.673 745.407 718.635 850.509 576.883 840.004C435.116 829.5 340.593 763.803 222.445 813.725C126.247 854.376 63.1414 893.064 0.479022 894.768V776.161H0.335938V438.952H0.507647V0H1374V468.311H1373.8V759.248Z" fill="#F8F9CF"/>
</svg>
