<svg width="1364" height="1378" viewBox="0 0 1364 1378" fill="none" xmlns="http://www.w3.org/2000/svg">
<path d="M1363.93 1237V1377.45C1328.59 1368.52 1257.25 1347.15 1140.92 1298.3C963.567 1223.83 713.31 1328.07 572.562 1317.65C431.778 1307.23 337.934 1242.07 220.61 1291.59C125.054 1331.93 62.3849 1370.33 0.14209 1371.99V1371.44C62.3636 1369.75 125.026 1331.37 220.546 1291.04C337.863 1241.52 431.721 1306.69 572.491 1317.11C713.246 1327.53 963.51 1223.27 1140.85 1297.74C1257.17 1346.6 1328.53 1367.96 1363.87 1376.91V1237H1363.93Z" fill="#F8F9CF"/>
<path d="M1363.83 457.622V483.867H1364V948.406H1363.8V1237H1363.87V1376.91C1328.53 1367.96 1257.17 1346.6 1140.85 1297.74C963.51 1223.27 713.246 1327.53 572.491 1317.11C431.721 1306.69 337.863 1241.52 220.546 1291.04C125.026 1331.37 62.3636 1369.75 0.142091 1371.44V1253.79H0V919.292H0.170509V893.04H0V428.5H0.198927V139.905H0.127882V0C35.473 8.94247 106.831 30.3078 223.146 79.1611C400.49 153.634 650.754 49.3789 791.509 59.7988C932.279 70.2186 1026.14 135.387 1143.45 85.8662C1238.97 45.5434 1301.64 7.16676 1363.86 5.47629V123.128H1364V457.622H1363.83Z" fill="#F8F9CF"/>
<path d="M0.14209 1253.79H0.0710449V1371.44H0.14209V1253.79Z" fill="#F8F9CF"/>
<path d="M1363.87 1236.45H1363.8V1237H1363.87V1236.45Z" fill="#F8F9CF"/>
</svg>
